<svg id="b8bd5779-0a98-4b70-8161-20ee6616df3c" data-name="Camada 1" xmlns="http://www.w3.org/2000/svg" viewBox="0 0 508.02 501.71"><defs><style>.f5a09491-cabc-4919-a2da-3498b257356c{fill:transparent;}</style></defs><path d="M311.66,507v-5.78c0-14,.11-28.06-.1-42a66.78,66.78,0,0,0-1.05-13c-1.89-9.25-7.36-11.46-15.13-6.2-9.25,6.3-19,11.14-30.16,12.82-16.61,2.52-31.53-2.32-45.29-11.14-11.25-7.25-17.87-4.31-18.39,9.14-.74,16.29-.32,32.58-.32,48.86v7.25C96.35,485.88-1.7,385.94,2.51,251.12,6.71,115.77,116.42,7.64,252.5,5.33,385.22,3,499,105.89,509.54,237,520.57,376.06,423.37,483.67,311.66,507ZM110.85,337.81c.31,3.26.42,6.62,1.05,9.88q6.61,31.53,13.45,62.95c.74,3.57,1.47,7.25,2.52,10.72,4.63,16,20.07,20.7,32.79,10q19.86-16.86,39.19-34.15c3.26-2.84,6.31-3.47,9.88-1.05,1.37.84,2.73,1.57,4.1,2.41,30.16,19.76,59.79,20.7,88.59-2.62,3.78-3.05,6.93-1.79,10.19,1.05q20,17.34,40.25,34.57c14.08,12,30.16,6.41,33.73-11.77,4-20.07,7.78-40.14,12.4-60,6.2-26.69.74-49.18-21.12-66.84-6.31-5-12.4-10.19-18.5-15.44-4.62-4.1-7.56-8.94-7.46-15.56.11-8.3.53-16.71-.31-25-4.1-43.4-18.18-83.54-41.41-120.42C297.27,96,283.5,76.15,264.06,61.13c-7.14-5.57-9.25-5.57-16.5,0C235.69,70.37,226,81.51,217.09,93.6c-37.41,50.75-59.06,106.87-57.8,170.76a14.59,14.59,0,0,1-5.78,12.29c-6.72,5.57-13.55,11-20.17,16.71C119.78,305,111.06,319.32,110.85,337.81Z" transform="translate(-2.38 -5.29)"/><path d="M214.88,206.25a41,41,0,0,1,42-40c22.38.42,40.66,19.44,40,41.51a41,41,0,0,1-82.07-1.47Z" transform="translate(-2.38 -5.29)"/><path class="f5a09491-cabc-4919-a2da-3498b257356c" d="M352,252.37c0,2.67.15,5.34,0,8-.47,7.27,2.55,12.91,7.94,17.47,5.59,4.73,11.1,9.57,16.88,14.07,21.68,16.9,28.23,38.94,22.64,65.3-4.48,21.13-8.67,42.32-13.25,63.42-3.66,16.85-19,22-32.24,10.93-13.67-11.43-27.06-23.18-40.61-34.74-4.93-4.21-7-4.19-12.28-.27-27.58,20.38-54.06,21.81-83,3.85-14.52-9-13.86-7.45-24.93,2.27-10.14,8.91-20.34,17.74-30.52,26.59-1.26,1.09-2.55,2.16-3.9,3.13-11.14,8.06-24.92,4.34-29.18-8.73-3.38-10.37-5.26-21.26-7.59-32-3.35-15.44-6.84-30.85-9.68-46.38-3.29-18,2.87-33.33,15.36-45.95,7.81-7.9,16.65-14.82,25.27-21.88a17.49,17.49,0,0,0,6.94-14.7c-.94-70.29,25.09-130.48,69.35-183.64,6-7.23,13.73-13,20.7-19.45,4.15-3.83,8.58-3.54,12.49.1,8.5,7.92,17.74,15.33,25,24.33,28.81,35.89,50.12,75.73,59.34,121.22,3.12,15.44,4.57,31.21,6.79,46.84ZM297.4,207c.23-22.32-17.94-41-40.12-41.31-23.47-.3-42.08,17.6-42.29,40.68a41.05,41.05,0,0,0,40.64,41.34C278.77,247.86,297.16,229.94,297.4,207Z" transform="translate(-2.38 -5.29)"/><path class="f5a09491-cabc-4919-a2da-3498b257356c" d="M202.38,507c0-20.27-.33-40.11.16-59.92.21-8.5,5.77-11.27,13.28-7.71a63.55,63.55,0,0,1,6.51,3.81q35,22,69.61-.58c2-1.28,3.87-2.69,5.93-3.81,6-3.24,10.58-1.29,12.12,5.51a59.66,59.66,0,0,1,1.35,12.31c.22,15.71.21,31.43.27,47.15,0,1-.17,2-.28,3.24Z" transform="translate(-2.38 -5.29)"/></svg>